<?xml version="1.0" encoding="UTF-8" standalone="no"?>
<!-- Created with Inkscape (http://www.inkscape.org/) -->

<svg
   version="1.1"
   id="svg1"
   width="381.25732"
   height="43.775024"
   viewBox="0 0 381.25733 43.775025"
   sodipodi:docname="MEDSB__H-1-color-WHT-12.eps"
   inkscape:version="0.0"
   xmlns:inkscape="http://www.inkscape.org/namespaces/inkscape"
   xmlns:sodipodi="http://sodipodi.sourceforge.net/DTD/sodipodi-0.dtd"
   xmlns="http://www.w3.org/2000/svg"
   xmlns:svg="http://www.w3.org/2000/svg">
  <defs
     id="defs1" />
  <sodipodi:namedview
     id="namedview1"
     pagecolor="#000000"
     bordercolor="#000000"
     borderopacity="0.25"
     inkscape:showpageshadow="false"
     inkscape:pageopacity="0.0"
     inkscape:pagecheckerboard="true"
     inkscape:deskcolor="#d1d1d1"
     borderlayer="true"
     inkscape:zoom="1.9300823"
     inkscape:cx="226.67428"
     inkscape:cy="24.351294"
     inkscape:window-width="2560"
     inkscape:window-height="1387"
     inkscape:window-x="1080"
     inkscape:window-y="25"
     inkscape:window-maximized="1"
     inkscape:current-layer="g1" />
  <g
     id="g1"
     inkscape:groupmode="layer"
     inkscape:label="1"
     style="opacity:1"
     transform="translate(0,-1.8856012)">
    <g
       id="group-R5">
      <path
         id="path2"
         d="m 2083.18,235.391 c 0,13.097 0.22,27.402 0.44,35.644 h -0.32 c -2.64,-13.633 -7.6,-40.808 -12.87,-64.793 h -10.57 c -3.96,21.785 -9.23,50.828 -11.66,65.02 h -0.44 c 0.44,-8.692 0.78,-24.649 0.78,-37.403 v -27.617 h -10.69 v 74.59 h 17.29 c 4.61,-21.562 8.9,-45.004 10.55,-55.559 h 0.11 c 1.43,9.465 6.94,34.875 11.55,55.559 h 16.95 v -74.59 h -11.12 v 29.149"
         style="fill:#ffffff;fill-opacity:1;fill-rule:nonzero;stroke:none"
         transform="matrix(0.13333333,0,0,-0.13333333,0,48.32)" />
      <path
         id="path3"
         d="m 2107.16,271.926 v 12.539 h 11.43 v -12.539 z m -0.11,-9.133 h 11.44 v -56.551 h -11.44 v 56.551"
         style="fill:#ffffff;fill-opacity:1;fill-rule:nonzero;stroke:none"
         transform="matrix(0.13333333,0,0,-0.13333333,0,48.32)" />
      <path
         id="path4"
         d="m 2125.41,262.793 h 7.6 v 14.406 h 11.33 v -14.406 h 9.13 v -9.465 h -9.13 v -33.004 c 0,-3.527 0.66,-5.5 4.84,-5.5 1.32,0 2.42,0 3.41,0.215 v -8.465 c -2.2,-0.996 -5.5,-1.105 -7.49,-1.105 -8.24,0 -12.09,3.086 -12.09,12.871 v 34.988 h -7.6 v 9.465"
         style="fill:#ffffff;fill-opacity:1;fill-rule:nonzero;stroke:none"
         transform="matrix(0.13333333,0,0,-0.13333333,0,48.32)" />
      <path
         id="path5"
         d="m 2197.03,224.727 c -0.22,-3.965 -1.33,-19.473 -19.26,-19.473 -15.73,0 -19.8,12.98 -19.8,29.699 0,15.289 5.06,28.828 20.47,28.828 17.81,0 18.48,-15.734 18.59,-18.82 h -11.56 c -0.1,2.207 -0.55,9.355 -7.15,9.355 -6.48,0 -8.8,-7.253 -8.8,-19.472 0,-12.766 2.32,-20.02 8.59,-20.02 6.81,0 7.48,6.817 7.81,9.903 h 11.11"
         style="fill:#ffffff;fill-opacity:1;fill-rule:nonzero;stroke:none"
         transform="matrix(0.13333333,0,0,-0.13333333,0,48.32)" />
      <path
         id="path6"
         d="m 2216.93,284.465 v -27.617 c 2.09,3.965 5.94,6.933 12.98,6.933 9.03,0 14.19,-5.722 14.19,-17.492 v -40.047 h -11.44 v 37.735 c 0,6.054 -1.31,10.007 -7.37,10.007 -6.38,0 -8.36,-5.058 -8.36,-13.418 v -34.324 h -11.32 v 78.223 h 11.32"
         style="fill:#ffffff;fill-opacity:1;fill-rule:nonzero;stroke:none"
         transform="matrix(0.13333333,0,0,-0.13333333,0,48.32)" />
      <path
         id="path7"
         d="m 2282.5,240.129 c 0,6.934 -1.11,14.187 -8.48,14.187 -8.47,0 -8.9,-10.117 -9.02,-14.187 z m -17.61,-8.359 c 0,-8.481 1.21,-17.063 9.02,-17.063 7.26,0 8.26,6.496 8.47,8.371 h 11 c -0.21,-1.652 -1.64,-17.941 -19.69,-17.941 -17.71,0 -20.24,15.41 -20.24,29.601 0,17.926 6.6,29.043 20.57,29.043 15.96,0 19.81,-12.328 19.81,-26.847 0,-1.649 -0.12,-4.071 -0.23,-5.164 h -28.71"
         style="fill:#ffffff;fill-opacity:1;fill-rule:nonzero;stroke:none"
         transform="matrix(0.13333333,0,0,-0.13333333,0,48.32)" />
      <path
         id="path8"
         d="m 2303.06,206.242 v 78.223 h 11.43 v -78.223 h -11.43"
         style="fill:#ffffff;fill-opacity:1;fill-rule:nonzero;stroke:none"
         transform="matrix(0.13333333,0,0,-0.13333333,0,48.32)" />
      <path
         id="path9"
         d="m 2326.6,206.242 v 78.223 h 11.44 v -78.223 h -11.44"
         style="fill:#ffffff;fill-opacity:1;fill-rule:nonzero;stroke:none"
         transform="matrix(0.13333333,0,0,-0.13333333,0,48.32)" />
      <path
         id="path10"
         d="m 2407.23,240.234 h -24.2 V 216.25 h 27.07 l -1.44,-10.008 h -37.08 v 74.59 h 36.86 v -10.234 h -25.41 v -20.235 h 24.2 v -10.129"
         style="fill:#ffffff;fill-opacity:1;fill-rule:nonzero;stroke:none"
         transform="matrix(0.13333333,0,0,-0.13333333,0,48.32)" />
      <path
         id="path11"
         d="m 2418.45,206.242 v 16.278 h 11.66 v -16.278 h -11.66"
         style="fill:#ffffff;fill-opacity:1;fill-rule:nonzero;stroke:none"
         transform="matrix(0.13333333,0,0,-0.13333333,0,48.32)" />
      <path
         id="path12"
         d="m 2473.22,215.813 h 5.51 c 11.45,0 15.29,8.914 15.29,29.265 0,18.039 -3.84,25.957 -15.18,25.957 h -5.62 z m -11.66,65.019 h 18.38 c 18.6,0 26.08,-12.207 26.08,-35.644 0,-25.196 -7.04,-38.946 -27.07,-38.946 h -17.39 v 74.59"
         style="fill:#ffffff;fill-opacity:1;fill-rule:nonzero;stroke:none"
         transform="matrix(0.13333333,0,0,-0.13333333,0,48.32)" />
      <path
         id="path13"
         d="m 2540.45,231.77 c -1.33,0.214 -2.65,0.214 -4.74,0.214 -8.25,0 -11.43,-3.957 -11.43,-9.132 0,-4.071 1.97,-8.25 7.25,-8.25 7.15,0 8.92,5.281 8.92,14.851 z m 10.88,-13.977 c 0,-3.086 0.33,-9.238 0.45,-11.551 h -10.34 c -0.23,1.211 -0.56,3.848 -0.56,5.613 -2.09,-3.859 -6.04,-6.601 -12.98,-6.601 -10.78,0 -14.96,8.574 -14.96,16.613 0,11.219 7.71,18.477 22.22,18.477 2.09,0 3.63,0 5.07,-0.215 v 6.707 c 0,3.633 -0.66,8.027 -6.94,8.027 -6.37,0 -7.04,-4.285 -7.37,-8.027 h -10.78 c 0.22,8.254 4.07,16.945 18.59,16.945 11.66,0 17.6,-5.5 17.6,-16.172 v -29.816"
         style="fill:#ffffff;fill-opacity:1;fill-rule:nonzero;stroke:none"
         transform="matrix(0.13333333,0,0,-0.13333333,0,48.32)" />
      <path
         id="path14"
         d="m 2563.65,245.188 c 0,11.66 0,14.746 -0.11,17.605 h 11 c 0.23,-1.434 0.32,-3.75 0.32,-6.387 1.77,3.528 5.4,7.375 12.89,7.375 8.79,0 14.52,-5.39 14.52,-17.168 v -40.371 h -11.45 v 37.84 c 0,6.055 -1.54,9.902 -7.15,9.902 -5.93,0 -8.58,-3.515 -8.58,-13.203 v -34.539 h -11.44 v 38.946"
         style="fill:#ffffff;fill-opacity:1;fill-rule:nonzero;stroke:none"
         transform="matrix(0.13333333,0,0,-0.13333333,0,48.32)" />
      <path
         id="path15"
         d="m 2614.47,271.926 v 12.539 h 11.44 v -12.539 z m -0.11,-9.133 h 11.44 v -56.551 h -11.44 v 56.551"
         style="fill:#ffffff;fill-opacity:1;fill-rule:nonzero;stroke:none"
         transform="matrix(0.13333333,0,0,-0.13333333,0,48.32)" />
      <path
         id="path16"
         d="m 2664.42,240.129 c 0,6.934 -1.12,14.187 -8.48,14.187 -8.48,0 -8.91,-10.117 -9.02,-14.187 z m -17.61,-8.359 c 0,-8.481 1.21,-17.063 9.01,-17.063 7.27,0 8.26,6.496 8.48,8.371 h 10.99 c -0.21,-1.652 -1.64,-17.941 -19.68,-17.941 -17.72,0 -20.25,15.41 -20.25,29.601 0,17.926 6.6,29.043 20.58,29.043 15.96,0 19.8,-12.328 19.8,-26.847 0,-1.649 -0.11,-4.071 -0.22,-5.164 h -28.71"
         style="fill:#ffffff;fill-opacity:1;fill-rule:nonzero;stroke:none"
         transform="matrix(0.13333333,0,0,-0.13333333,0,48.32)" />
      <path
         id="path17"
         d="m 2684.97,206.242 v 78.223 h 11.44 v -78.223 h -11.44"
         style="fill:#ffffff;fill-opacity:1;fill-rule:nonzero;stroke:none"
         transform="matrix(0.13333333,0,0,-0.13333333,0,48.32)" />
      <path
         id="path18"
         d="m 2715.67,223.078 c 0.1,-4.629 2.42,-9.023 8.24,-9.023 4.96,0 7.26,2.859 7.26,7.039 0,4.621 -2.19,6.933 -9.13,9.57 -12.76,4.727 -16.06,9.238 -16.06,17.383 0,7.59 4.72,15.734 17.61,15.734 14.08,0 17.7,-9.57 17.7,-17.051 h -11 c 0,2.196 -0.44,8.25 -7.04,8.25 -4.07,0 -6.16,-2.527 -6.16,-6.16 0,-3.859 1.98,-5.722 9.13,-8.359 11.67,-4.406 16.28,-8.809 16.28,-18.051 0,-10.887 -6.82,-17.156 -19.14,-17.156 -12.87,0 -18.81,7.695 -18.93,17.824 h 11.24"
         style="fill:#ffffff;fill-opacity:1;fill-rule:nonzero;stroke:none"
         transform="matrix(0.13333333,0,0,-0.13333333,0,48.32)" />
      <path
         id="path19"
         d="m 2745.59,194.246 c 3.73,10.121 6.04,21.125 6.36,27.832 h 10.79 c -0.88,-10.34 -4.28,-21.336 -8.03,-27.832 h -9.12"
         style="fill:#ffffff;fill-opacity:1;fill-rule:nonzero;stroke:none"
         transform="matrix(0.13333333,0,0,-0.13333333,0,48.32)" />
      <path
         id="path20"
         d="m 2810.59,225.273 c 0,-11.66 -2.42,-20.019 -16.6,-20.019 -2.76,0 -5.18,0.324 -6.83,0.547 v 9.679 c 1.32,-0.109 2.97,-0.324 4.83,-0.324 6.06,0 7.05,3.184 7.05,9.348 v 56.328 h 11.55 v -55.559"
         style="fill:#ffffff;fill-opacity:1;fill-rule:nonzero;stroke:none"
         transform="matrix(0.13333333,0,0,-0.13333333,0,48.32)" />
      <path
         id="path21"
         d="m 2821.7,243.645 c 0,9.128 0,15.078 -0.11,19.148 h 10.89 c 0.12,-1.102 0.33,-3.633 0.33,-9.578 2.21,6.601 7.37,10.457 14.86,10.457 v -12.656 c -9.36,0 -14.52,-3.848 -14.52,-14.414 v -30.36 h -11.45 v 37.403"
         style="fill:#ffffff;fill-opacity:1;fill-rule:nonzero;stroke:none"
         transform="matrix(0.13333333,0,0,-0.13333333,0,48.32)" />
      <path
         id="path22"
         d="m 2847.77,206.242 v 16.278 h 11.66 v -16.278 h -11.66"
         style="fill:#ffffff;fill-opacity:1;fill-rule:nonzero;stroke:none"
         transform="matrix(0.13333333,0,0,-0.13333333,0,48.32)" />
      <path
         id="path23"
         d="m 2045.01,106.699 c 0.66,-6.7068 3.53,-12.4295 10.78,-12.4295 7.04,0 10.01,4.1797 10.01,10.7815 0,6.719 -3.07,10.457 -12.75,15.183 -12.44,5.832 -17.5,11.114 -17.5,22.11 0,11.34 7.37,19.59 20.35,19.59 15.96,0 20.02,-11.004 20.24,-20.352 h -11.32 c -0.44,3.953 -1.55,11.106 -9.14,11.106 -5.93,0 -8.58,-3.958 -8.58,-9.348 0,-5.938 2.65,-8.801 11.66,-12.977 13.2,-6.164 18.82,-12.218 18.82,-24.316 0,-11.6603 -7.05,-21.0157 -22.12,-21.0157 -16.4,0 -21.45,10.5664 -22,21.6677 h 11.55"
         style="fill:#ffffff;fill-opacity:1;fill-rule:nonzero;stroke:none"
         transform="matrix(0.13333333,0,0,-0.13333333,0,48.32)" />
      <path
         id="path24"
         d="m 2124,104.727 c -0.23,-3.965 -1.32,-19.4731 -19.25,-19.4731 -15.74,0 -19.81,12.9805 -19.81,29.6991 0,15.289 5.06,28.828 20.46,28.828 17.82,0 18.49,-15.734 18.6,-18.82 h -11.56 c -0.1,2.207 -0.54,9.355 -7.15,9.355 -6.49,0 -8.8,-7.253 -8.8,-19.472 0,-12.766 2.31,-20.0198 8.59,-20.0198 6.82,0 7.48,6.8168 7.8,9.9028 H 2124"
         style="fill:#ffffff;fill-opacity:1;fill-rule:nonzero;stroke:none"
         transform="matrix(0.13333333,0,0,-0.13333333,0,48.32)" />
      <path
         id="path25"
         d="m 2143.9,164.465 v -27.617 c 2.1,3.965 5.94,6.933 12.98,6.933 9.02,0 14.2,-5.722 14.2,-17.492 V 86.2422 h -11.45 v 37.7348 c 0,6.054 -1.32,10.007 -7.36,10.007 -6.39,0 -8.37,-5.058 -8.37,-13.418 V 86.2422 h -11.33 v 78.2228 h 11.33"
         style="fill:#ffffff;fill-opacity:1;fill-rule:nonzero;stroke:none"
         transform="matrix(0.13333333,0,0,-0.13333333,0,48.32)" />
      <path
         id="path26"
         d="m 2191.97,114.844 c 0,-13.203 2.64,-20.0198 9.24,-20.0198 6.39,0 9.03,6.8168 9.03,19.9138 0,13.203 -2.64,19.364 -9.03,19.364 -6.27,0 -9.24,-6.055 -9.24,-19.258 z m 29.81,0.226 c 0,-20.363 -7.26,-29.9333 -20.78,-29.9333 -13.54,0 -20.59,9.25 -20.59,29.7073 0,19.804 8.26,28.937 21.13,28.937 13.21,0 20.24,-9.797 20.24,-28.711"
         style="fill:#ffffff;fill-opacity:1;fill-rule:nonzero;stroke:none"
         transform="matrix(0.13333333,0,0,-0.13333333,0,48.32)" />
      <path
         id="path27"
         d="m 2240.47,114.844 c 0,-13.203 2.65,-20.0198 9.25,-20.0198 6.37,0 9.01,6.8168 9.01,19.9138 0,13.203 -2.64,19.364 -9.01,19.364 -6.27,0 -9.25,-6.055 -9.25,-19.258 z m 29.82,0.226 c 0,-20.363 -7.26,-29.9333 -20.8,-29.9333 -13.53,0 -20.56,9.25 -20.56,29.7073 0,19.804 8.24,28.937 21.11,28.937 13.2,0 20.25,-9.797 20.25,-28.711"
         style="fill:#ffffff;fill-opacity:1;fill-rule:nonzero;stroke:none"
         transform="matrix(0.13333333,0,0,-0.13333333,0,48.32)" />
      <path
         id="path28"
         d="m 2279.75,86.2422 v 78.2228 h 11.43 V 86.2422 h -11.43"
         style="fill:#ffffff;fill-opacity:1;fill-rule:nonzero;stroke:none"
         transform="matrix(0.13333333,0,0,-0.13333333,0,48.32)" />
      <path
         id="path29"
         d="m 2332.87,114.844 c 0,-13.203 2.64,-20.0198 9.24,-20.0198 6.39,0 9.02,6.8168 9.02,19.9138 0,13.203 -2.63,19.364 -9.02,19.364 -6.27,0 -9.24,-6.055 -9.24,-19.258 z m 29.82,0.226 c 0,-20.363 -7.26,-29.9333 -20.79,-29.9333 -13.54,0 -20.58,9.25 -20.58,29.7073 0,19.804 8.25,28.937 21.12,28.937 13.21,0 20.25,-9.797 20.25,-28.711"
         style="fill:#ffffff;fill-opacity:1;fill-rule:nonzero;stroke:none"
         transform="matrix(0.13333333,0,0,-0.13333333,0,48.32)" />
      <path
         id="path30"
         d="m 2373.69,86.2422 v 47.0858 h -6.82 v 9.465 h 6.82 v 6.27 c 0,9.132 3.96,16.054 14.85,16.054 1.75,0 3.96,-0.215 5.05,-0.547 v -9.675 c -0.98,0.214 -2.08,0.332 -3.3,0.332 -3.95,0 -5.16,-2.317 -5.16,-6.829 v -5.605 h 8.36 v -9.465 h -8.36 V 86.2422 h -11.44"
         style="fill:#ffffff;fill-opacity:1;fill-rule:nonzero;stroke:none"
         transform="matrix(0.13333333,0,0,-0.13333333,0,48.32)" />
      <path
         id="path31"
         d="m 2431.1,95.3711 h 8.7 c 7.37,0 11.55,4.0742 11.55,12.9809 0,8.476 -3.85,13.093 -12.99,13.093 h -7.26 z m 7.16,35.2069 c 8.69,0 11.33,3.524 11.33,10.567 0,6.816 -3.63,10.339 -10.67,10.339 h -7.82 v -20.906 z m -18.49,30.25 h 21.57 c 12.31,0 19.36,-7.039 19.36,-18.699 0,-9.57 -4.62,-14.082 -8.8,-15.625 5.39,-2.09 11.11,-7.039 11.11,-18.367 0,-13.8675 -8.91,-21.8948 -22,-21.8948 h -21.24 v 74.5858"
         style="fill:#ffffff;fill-opacity:1;fill-rule:nonzero;stroke:none"
         transform="matrix(0.13333333,0,0,-0.13333333,0,48.32)" />
      <path
         id="path32"
         d="m 2509.65,102.52 c 0,-7.9184 0,-13.4184 0.1,-16.2778 h -10.88 c -0.33,1.6484 -0.45,4.1797 -0.56,6.6016 -2.31,-5.2852 -6.6,-7.5899 -12.87,-7.5899 -7.48,0 -14.08,3.5156 -14.08,16.9451 v 40.594 h 11.43 v -37.957 c 0,-6.1641 1.44,-9.7969 6.72,-9.7969 5.39,0 8.69,3.0859 8.69,13.2029 v 34.551 h 11.45 V 102.52"
         style="fill:#ffffff;fill-opacity:1;fill-rule:nonzero;stroke:none"
         transform="matrix(0.13333333,0,0,-0.13333333,0,48.32)" />
      <path
         id="path33"
         d="m 2529.1,103.078 c 0.12,-4.6288 2.42,-9.0233 8.26,-9.0233 4.95,0 7.26,2.8594 7.26,7.0393 0,4.621 -2.2,6.933 -9.13,9.57 -12.75,4.727 -16.06,9.238 -16.06,17.383 0,7.59 4.73,15.734 17.6,15.734 14.08,0 17.72,-9.57 17.72,-17.051 h -11.01 c 0,2.196 -0.44,8.25 -7.04,8.25 -4.07,0 -6.16,-2.527 -6.16,-6.16 0,-3.859 1.98,-5.722 9.13,-8.359 11.66,-4.406 16.29,-8.809 16.29,-18.051 0,-10.8866 -6.83,-17.1561 -19.14,-17.1561 -12.88,0 -18.82,7.6953 -18.93,17.8241 h 11.21"
         style="fill:#ffffff;fill-opacity:1;fill-rule:nonzero;stroke:none"
         transform="matrix(0.13333333,0,0,-0.13333333,0,48.32)" />
      <path
         id="path34"
         d="m 2564.86,151.926 v 12.539 h 11.44 v -12.539 z m -0.11,-9.133 h 11.44 V 86.2422 h -11.44 v 56.5508"
         style="fill:#ffffff;fill-opacity:1;fill-rule:nonzero;stroke:none"
         transform="matrix(0.13333333,0,0,-0.13333333,0,48.32)" />
      <path
         id="path35"
         d="m 2588.4,125.188 c 0,11.66 0,14.746 -0.12,17.605 h 11.01 c 0.22,-1.434 0.32,-3.75 0.32,-6.387 1.77,3.528 5.39,7.375 12.88,7.375 8.8,0 14.52,-5.39 14.52,-17.168 V 86.2422 h -11.44 v 37.8398 c 0,6.055 -1.55,9.902 -7.15,9.902 -5.94,0 -8.58,-3.515 -8.58,-13.203 V 86.2422 h -11.44 v 38.9458"
         style="fill:#ffffff;fill-opacity:1;fill-rule:nonzero;stroke:none"
         transform="matrix(0.13333333,0,0,-0.13333333,0,48.32)" />
      <path
         id="path36"
         d="m 2665.51,120.129 c 0,6.934 -1.1,14.187 -8.48,14.187 -8.46,0 -8.9,-10.117 -9.02,-14.187 z m -17.6,-8.359 c 0,-8.481 1.21,-17.063 9.02,-17.063 7.25,0 8.25,6.496 8.46,8.371 h 11.01 c -0.23,-1.652 -1.65,-17.9413 -19.7,-17.9413 -17.7,0 -20.23,15.4103 -20.23,29.6013 0,17.926 6.6,29.043 20.56,29.043 15.96,0 19.81,-12.328 19.81,-26.847 0,-1.649 -0.11,-4.071 -0.22,-5.164 h -28.71"
         style="fill:#ffffff;fill-opacity:1;fill-rule:nonzero;stroke:none"
         transform="matrix(0.13333333,0,0,-0.13333333,0,48.32)" />
      <path
         id="path37"
         d="m 2694.21,103.078 c 0.11,-4.6288 2.42,-9.0233 8.25,-9.0233 4.95,0 7.27,2.8594 7.27,7.0393 0,4.621 -2.21,6.933 -9.14,9.57 -12.76,4.727 -16.06,9.238 -16.06,17.383 0,7.59 4.73,15.734 17.6,15.734 14.08,0 17.71,-9.57 17.71,-17.051 h -10.99 c 0,2.196 -0.45,8.25 -7.05,8.25 -4.06,0 -6.15,-2.527 -6.15,-6.16 0,-3.859 1.97,-5.722 9.12,-8.359 11.67,-4.406 16.29,-8.809 16.29,-18.051 0,-10.8866 -6.82,-17.1561 -19.14,-17.1561 -12.88,0 -18.81,7.6953 -18.93,17.8241 h 11.22"
         style="fill:#ffffff;fill-opacity:1;fill-rule:nonzero;stroke:none"
         transform="matrix(0.13333333,0,0,-0.13333333,0,48.32)" />
      <path
         id="path38"
         d="m 2737.88,103.078 c 0.11,-4.6288 2.42,-9.0233 8.25,-9.0233 4.96,0 7.27,2.8594 7.27,7.0393 0,4.621 -2.21,6.933 -9.14,9.57 -12.75,4.727 -16.06,9.238 -16.06,17.383 0,7.59 4.73,15.734 17.6,15.734 14.08,0 17.72,-9.57 17.72,-17.051 h -11 c 0,2.196 -0.45,8.25 -7.05,8.25 -4.06,0 -6.15,-2.527 -6.15,-6.16 0,-3.859 1.97,-5.722 9.12,-8.359 11.67,-4.406 16.29,-8.809 16.29,-18.051 0,-10.8866 -6.82,-17.1561 -19.14,-17.1561 -12.87,0 -18.81,7.6953 -18.93,17.8241 h 11.22"
         style="fill:#ffffff;fill-opacity:1;fill-rule:nonzero;stroke:none"
         transform="matrix(0.13333333,0,0,-0.13333333,0,48.32)" />
      <path
         id="path39"
         d="m 1919.34,20.1523 h -7.2 V 348.258 h 7.2 V 20.1523"
         style="fill:#ffffff;fill-opacity:1;fill-rule:nonzero;stroke:none"
         transform="matrix(0.13333333,0,0,-0.13333333,0,48.32)" />
      <path
         id="path40"
         d="M 439.27,249.781 H 329.445 l -14.316,-33.652 h 99.949 c 16.067,0 29.551,8.18 35.176,21.351 1.984,4.708 4.152,12.301 -10.984,12.301"
         style="fill:#ffffff;fill-opacity:1;fill-rule:nonzero;stroke:none"
         transform="matrix(0.13333333,0,0,-0.13333333,0,48.32)" />
      <path
         id="path41"
         d="m 574.035,228.398 c -19.707,-46.265 -45.351,-87.8 -141.535,-87.8 H 282.969 l -8.992,-21.102 h 66.66 L 308.449,43.9219 H 33.6914 l 32.168,75.5741 h 65.7146 l 55.477,130.285 h -65.586 l 32.16,75.512 h 347.664 c 42.422,0 67.57,-8.133 79.094,-25.586 13.457,-20.371 4.246,-46.391 -6.348,-71.309 z m 24.922,83.579 c -21.074,31.89 -65.832,35.578 -97.676,35.578 H 138.887 L 87.7734,227.52 H 153.359 L 116.867,141.758 H 51.1328 L 0,21.6719 h 323.164 l 41.152,96.6721 h 68.176 c 98.672,0 136.121,40.515 162.031,101.347 9.579,22.52 25.625,60.223 4.434,92.286"
         style="fill:#ffffff;fill-opacity:1;fill-rule:nonzero;stroke:none"
         transform="matrix(0.13333333,0,0,-0.13333333,0,48.32)" />
      <path
         id="path42"
         d="m 460.891,232.941 c -7.532,-17.699 -25.02,-28.39 -45.813,-28.39 H 297.617 l 24.18,56.789 H 439.27 c 20.789,0 29.168,-10.684 21.621,-28.399 z m 40.398,80.754 H 161.262 L 138.977,261.34 h 65.605 L 139.238,107.922 H 73.5156 L 51.1914,55.5078 H 300.801 l 22.304,52.4142 h -66.628 l 18.847,44.269 H 432.5 c 90.098,0 112.754,38.164 130.879,80.75 18.144,42.602 28.008,80.754 -62.09,80.754"
         style="fill:#ffffff;fill-opacity:1;fill-rule:nonzero;stroke:none"
         transform="matrix(0.13333333,0,0,-0.13333333,0,48.32)" />
      <path
         id="path43"
         d="m 748.879,322.457 v -73.879 l 38.262,2.828 c 9.5,4.375 19.297,10.117 19.297,33.961 0,18.028 -0.84,37.09 -35.813,37.09 z m -36.426,-0.66 -20.558,5.98 v 14.832 h 80.304 c 52.305,0 71.602,-16.707 71.602,-56.203 0,-36.941 -21.094,-56.097 -62.434,-56.097 h -32.488 v -59.164 l 20.82,-5.985 v -13.789 h -78.32 v 13.789 l 21.074,5.985 v 150.652"
         style="fill:#ffffff;fill-opacity:1;fill-rule:nonzero;stroke:none"
         transform="matrix(0.13333333,0,0,-0.13333333,0,48.32)" />
      <path
         id="path44"
         d="m 1116.19,322.316 v -72.851 l 38.71,2.601 c 12.3,6.09 18.22,15.836 18.22,35.903 0,21.074 -6.81,34.347 -28.67,34.347 z m 25.97,-89.507 h -25.97 V 171.145 L 1137,165.16 v -13.789 h -78.32 v 13.789 l 21.08,5.985 v 150.652 l -20.81,5.98 v 14.832 h 83.82 c 49.7,0 67.82,-17.632 67.82,-51.515 0,-26.188 -10.22,-39.821 -33.83,-49.18 l 35.39,-69.211 22.86,-7.543 v -13.789 h -53.31 l -39.54,81.438"
         style="fill:#ffffff;fill-opacity:1;fill-rule:nonzero;stroke:none"
         transform="matrix(0.13333333,0,0,-0.13333333,0,48.32)" />
      <path
         id="path45"
         d="M 1308.12,322.316 V 171.145 h 27.38 c 18.8,0 51.2,3.05 51.2,72.074 0,54.379 -9.77,79.097 -51.2,79.097 z m -57.5,-157.156 20.81,5.723 v 150.914 l -20.56,5.98 v 14.832 h 92.43 c 52.31,0 82.82,-31.531 82.82,-93.531 0,-70.156 -31.65,-97.707 -86.8,-97.707 h -88.7 v 13.789"
         style="fill:#ffffff;fill-opacity:1;fill-rule:nonzero;stroke:none"
         transform="matrix(0.13333333,0,0,-0.13333333,0,48.32)" />
      <path
         id="path46"
         d="m 772.305,51.7383 c 0,-23.2461 -13.446,-31.793 -35.477,-31.793 -22.121,0 -35.469,13.0352 -35.469,31.793 v 46.6055 l -9.98,3.1252 v 8.773 h 40.762 v -8.773 l -9.856,-3.1252 V 51.7383 c 0,-12.0274 4.61,-18.5703 17.715,-18.5703 6.406,0 17.277,2.0039 17.277,19.1718 0,17.7305 0,46.004 0,46.004 l -9.98,3.1252 v 8.773 h 34.988 v -8.773 l -9.98,-3.1252 V 51.7383"
         style="fill:#ffffff;fill-opacity:1;fill-rule:nonzero;stroke:none"
         transform="matrix(0.13333333,0,0,-0.13333333,0,48.32)" />
      <path
         id="path47"
         d="M 842.598,75.7383 V 32.9688 l 9.855,-3.0079 v -8.6914 h -34.387 v 8.6914 l 10.098,3.0079 v 60.6835 l -4.285,5.3946 -5.957,1.8631 v 9.332 h 22.508 l 43.41,-54.5818 v 42.6836 l -9.981,3.0042 v 8.894 h 34.383 v -8.894 l -9.969,-3.0042 V 21.1484 h -11.671 l -44.004,54.5899"
         style="fill:#ffffff;fill-opacity:1;fill-rule:nonzero;stroke:none"
         transform="matrix(0.13333333,0,0,-0.13333333,0,48.32)" />
      <path
         id="path48"
         d="m 982.461,32.9688 9.98,-3.0079 v -8.6914 h -40.878 v 8.6914 l 9.98,3.0079 v 65.4921 l -9.98,3.0081 v 8.773 h 40.878 v -8.773 l -9.98,-3.0081 V 32.9688"
         style="fill:#ffffff;fill-opacity:1;fill-rule:nonzero;stroke:none"
         transform="matrix(0.13333333,0,0,-0.13333333,0,48.32)" />
      <path
         id="path49"
         d="m 1533.02,32.9688 9.97,-3.0079 v -8.6914 h -40.88 v 8.6914 l 9.98,3.0079 v 65.4921 l -9.98,3.0081 v 8.773 h 40.88 v -8.773 l -9.97,-3.0081 V 32.9688"
         style="fill:#ffffff;fill-opacity:1;fill-rule:nonzero;stroke:none"
         transform="matrix(0.13333333,0,0,-0.13333333,0,48.32)" />
      <path
         id="path50"
         d="m 1086,21.2695 h -19.24 l -28.26,77.0743 -9.98,3.1252 v 8.773 h 43.04 v -8.773 l -10.09,-3.1252 18.76,-54.8321 19.11,54.8321 -9.98,3.1252 v 8.773 h 34.99 v -8.773 L 1114.37,98.3438 1086,21.2695"
         style="fill:#ffffff;fill-opacity:1;fill-rule:nonzero;stroke:none"
         transform="matrix(0.13333333,0,0,-0.13333333,0,48.32)" />
      <path
         id="path51"
         d="m 1166.94,98.3438 -9.98,3.0042 v 8.894 h 69.87 l 0.71,-27.4686 h -11.17 l -5.41,15.6875 h -23.1 V 73.4531 h 23.09 V 60.8242 h -23.09 V 32.6914 h 23.69 l 7.1,15.5938 h 10.94 l -1.56,-27.0157 h -71.07 v 8.6914 l 9.98,2.4922 v 65.8907"
         style="fill:#ffffff;fill-opacity:1;fill-rule:nonzero;stroke:none"
         transform="matrix(0.13333333,0,0,-0.13333333,0,48.32)" />
      <path
         id="path52"
         d="M 1305.49,98.3438 V 67.2031 l 14.06,1.1992 c 4.7,3.3672 6.98,9.2579 6.98,15.5079 0,8.9023 -2.34,14.4336 -11.48,14.4336 z m 7.58,-40.7618 h -7.58 V 32.9688 l 9.98,-3.0079 v -8.6914 h -40.88 v 8.6914 l 9.97,3.0079 v 65.375 l -9.97,3.0042 v 8.894 h 40.64 c 24.89,0 32.58,-9.617 32.58,-24.6443 0,-9.8594 -2.17,-18.8243 -14.39,-23.2813 l 14.28,-29.0273 12.5,-3.8438 v -8.1758 h -30.06 l -17.07,36.3125"
         style="fill:#ffffff;fill-opacity:1;fill-rule:nonzero;stroke:none"
         transform="matrix(0.13333333,0,0,-0.13333333,0,48.32)" />
      <path
         id="path53"
         d="m 1396.42,48.9219 h 12.36 l 2.65,-12.5078 c 5.16,-3.2461 11.92,-5.168 18.78,-5.168 0.95,0 1.92,0 2.88,0.1211 3.48,2.7695 5.53,6.3711 5.53,10.7031 0,20.8008 -42.56,11.543 -42.56,41.9649 0,13.9492 12.74,27.2928 33.9,27.2928 7.7,0 16.23,-2.164 24.17,-6.133 V 81.7461 h -11.67 l -4.21,14.9141 c -4.21,1.8007 -10.09,2.8867 -14.42,2.8867 -0.84,0 -1.56,0 -2.4,-0.1211 -3.97,-2.7656 -5.9,-6.25 -5.9,-10.461 0,-17.7968 42.21,-11.4257 42.21,-41.246 0,-16.1133 -14.56,-27.6563 -34.15,-27.6563 -8.41,0 -19.72,2.7695 -27.06,8.0586 l -0.11,20.8008"
         style="fill:#ffffff;fill-opacity:1;fill-rule:nonzero;stroke:none"
         transform="matrix(0.13333333,0,0,-0.13333333,0,48.32)" />
      <path
         id="path54"
         d="m 1613.6,98.2227 h -11.54 l -5.31,-15.8672 h -11.16 v 27.8865 h 77.55 V 82.3555 h -10.99 l -5.12,15.8672 h -12.51 V 32.9688 l 9.98,-3.0079 v -8.6914 h -40.88 v 8.6914 l 9.98,3.0079 v 65.2539"
         style="fill:#ffffff;fill-opacity:1;fill-rule:nonzero;stroke:none"
         transform="matrix(0.13333333,0,0,-0.13333333,0,48.32)" />
      <path
         id="path55"
         d="m 1732.91,55.5352 -23.33,42.8086 -9.98,3.1252 v 8.773 h 43.05 v -8.773 l -10.1,-3.1252 14.67,-28.9766 14.78,28.9766 -9.98,3.1252 v 8.773 h 35.12 v -8.773 l -9.98,-3.1252 -23.45,-42.5665 V 32.9688 l 9.98,-3.0079 v -8.6914 h -40.89 v 8.6914 l 10.11,3.0079 v 22.5664"
         style="fill:#ffffff;fill-opacity:1;fill-rule:nonzero;stroke:none"
         transform="matrix(0.13333333,0,0,-0.13333333,0,48.32)" />
      <path
         id="path56"
         d="M 1770.54,206.793 1757,171.145 h -59.88 v 68.8 h 33.92 l 4.37,-19.265 h 15.08 v 57.945 h -15.08 l -4.37,-18.582 h -33.92 v 62.273 h 57.29 l 10.92,-36.949 h 20.62 l -1.31,57.242 h -144.77 v -14.832 l 20.56,-5.98 V 170.883 l -20.82,-5.723 v -13.789 h 147.9 l 3.38,55.422 h -20.35"
         style="fill:#ffffff;fill-opacity:1;fill-rule:nonzero;stroke:none"
         transform="matrix(0.13333333,0,0,-0.13333333,0,48.32)" />
      <path
         id="path57"
         d="m 1021.73,217.141 c 0,-48.524 -23.164,-68.633 -70.644,-68.633 -43.711,0 -75.324,17.461 -75.324,63.558 v 109.731 l -20.809,5.98 v 14.832 h 78.055 v -14.832 l -20.82,-5.98 V 212.066 c 0,-27.578 12.753,-39.695 43.195,-39.695 21.004,0 40.332,12.313 40.332,42.234 v 107.192 l -20.559,5.98 v 14.832 h 67.394 v -14.832 l -20.82,-5.98 V 217.141"
         style="fill:#ffffff;fill-opacity:1;fill-rule:nonzero;stroke:none"
         transform="matrix(0.13333333,0,0,-0.13333333,0,48.32)" />
      <path
         id="path58"
         d="m 1602.66,217.141 c 0,-48.524 -23.17,-68.633 -70.65,-68.633 -43.71,0 -75.32,17.461 -75.32,63.558 v 109.731 l -20.81,5.98 v 14.832 h 78.06 v -14.832 l -20.82,-5.98 V 212.066 c 0,-27.578 12.75,-39.695 43.19,-39.695 21.01,0 40.33,12.313 40.33,42.234 v 107.192 l -20.55,5.98 v 14.832 h 67.39 v -14.832 l -20.82,-5.98 V 217.141"
         style="fill:#ffffff;fill-opacity:1;fill-rule:nonzero;stroke:none"
         transform="matrix(0.13333333,0,0,-0.13333333,0,48.32)" />
      <path
         id="path59"
         d="m 1811.38,55.7148 c -8.34,0 -15.12,-6.789 -15.12,-15.1289 0,-8.3359 6.78,-15.1211 15.12,-15.1211 8.34,0 15.13,6.7852 15.13,15.1211 0,8.3399 -6.79,15.1289 -15.13,15.1289 z m 0,-34.207 c -10.52,0 -19.08,8.5625 -19.08,19.0781 0,10.5235 8.56,19.0821 19.08,19.0821 10.53,0 19.08,-8.5586 19.08,-19.0821 0,-10.5156 -8.55,-19.0781 -19.08,-19.0781"
         style="fill:#ffffff;fill-opacity:1;fill-rule:nonzero;stroke:none"
         transform="matrix(0.13333333,0,0,-0.13333333,0,48.32)" />
      <path
         id="path60"
         d="m 1808.97,41.8984 h 3.2 c 2.09,0 2.91,0.7969 2.91,2.2657 0,1.4375 -0.96,2.2617 -2.83,2.2617 h -3.28 z m 0,-3.0546 v -7.0899 h -3.76 v 17.6992 h 7.79 c 3.85,0 5.93,-2.1054 5.93,-4.8515 0,-2.3633 -1.28,-3.6485 -2.57,-4.1914 0.88,-0.3321 2.22,-1.2305 2.22,-4.418 v -0.875 c 0,-1.1797 0,-2.543 0.25,-3.3633 h -3.65 c -0.31,0.7695 -0.36,2.1055 -0.36,3.9844 v 0.2539 c 0,1.9297 -0.49,2.8516 -3.34,2.8516 h -2.51"
         style="fill:#ffffff;fill-opacity:1;fill-rule:nonzero;stroke:none"
         transform="matrix(0.13333333,0,0,-0.13333333,0,48.32)" />
    </g>
  </g>
</svg>
